<svg xmlns="http://www.w3.org/2000/svg" viewBox="0 0 640 640"><path fill="#FFF" d="M320 7.9C143.3 7.9 0 151.17 0 327.9c0 141.39 91.68 261.33 218.85 303.65 16 2.93 21.84-6.95 21.84-15.43 0-7.59-.27-27.72-.43-54.42-89 19.34-107.8-42.9-107.8-42.9-14.55-36.96-35.52-46.8-35.52-46.8-29.06-19.85 2.19-19.45 2.19-19.45 32.12 2.26 49 33 49 33 28.54 48.9 74.89 34.78 93.13 26.59 2.9-20.68 11.17-34.78 20.31-42.78-71-8.08-145.76-35.53-145.76-158.16 0-34.93 12.47-63.5 32.94-85.86-3.29-8.1-14.27-40.64 3.14-84.69 0 0 26.87-8.61 88 32.8a303.32 303.32 0 0 1 160.22 0C461.22 132 488 140.62 488 140.62c17.46 44 6.48 76.59 3.19 84.69 20.51 22.36 32.89 50.93 32.89 85.86 0 122.93-74.82 150-146.11 157.91 11.49 9.88 21.73 29.41 21.73 59.26 0 42.78-.39 77.29-.39 87.78 0 8.56 5.76 18.52 22 15.39C548.4 589.11 640 469.25 640 327.92 640 151.17 496.71 7.9 320 7.9z"/></svg>