<svg xmlns="http://www.w3.org/2000/svg" id="logo" viewBox="0 0 640 640"><defs><style>.logo-cls{fill:none;stroke:#c2cdd9;stroke-linecap:round;stroke-linejoin:round;stroke-width:4px}</style></defs><path fill="#1f79aa" d="M395.23 153.94q97.95.24 195.9.11a3.88 3.88 0 0 0 3.88-3.88v-26.62a3.88 3.88 0 0 0-3.87-3.88c-8.87 0-17.75-.07-26.62.06a3.85 3.85 0 0 1-3.94-3.93c.14-8.88.08-17.75.06-26.62a3.88 3.88 0 0 0-3.87-3.88q-253.44 0-506.88-.1A4.94 4.94 0 0 0 45 90.14c.12 157.18.12 302.54 0 459.72a4.94 4.94 0 0 0 4.93 4.94q253.44-.18 506.88-.1a3.87 3.87 0 0 0 3.87-3.87c0-8.88.08-17.75-.06-26.62a3.85 3.85 0 0 1 3.94-3.94c8.87.14 17.75.08 26.62.06a3.88 3.88 0 0 0 3.87-3.88v-26.62a3.88 3.88 0 0 0-3.88-3.88q-97.95 0-195.9.11c-5 0-6.63-.86-6.59-6.28.26-41.71.26-95.24 0-136.95 0-5.42 1.63-6.32 6.58-6.29 41.72.2 83.43 0 125.14.2 4.42 0 6.11-.69 6-5.61-.24-19.09-.61-26.38 0-45.46.17-5.31-1.5-6.06-6-6-41.71.16-83.43 0-125.14.21-5 0-6.62-.88-6.58-6.3.26-41.71.26-71.61 0-113.32-.08-5.46 1.6-6.34 6.55-6.32zm-276.77.11c24.7.07 49.4 0 74.1 0h71.17c7.11 0 7.11 0 7.11 7.36v17.18c0 6.87 0 6.87 7.11 6.87 6.71 0 13.42.13 20.12-.06 3-.08 4.28.59 4.25 4q-.24 27.48 0 55c0 3.4-1.22 4.08-4.25 4-6.37-.19-12.76-.05-19.14-.05-8.09 0-8.09 0-8.1 7.85 0 6.55-.11 13.09.06 19.63.07 2.84-.55 4-3.74 4q-74.84-.15-149.68 0c-3.21 0-3.74-1.18-3.73-4q.1-58.89 0-117.79c-.05-4.04 1.82-4.04 4.72-3.99zM333 448.7c-8.35-.19-16.71-.11-25.06 0-8.63.07-7.49-1.08-7.56 7.27s-.17 16.71 0 25.06c.1 3.61-.71 5.05-4.74 5q-88.59-.18-177.19 0c-4 0-4.73-1.45-4.72-5q.15-69.66 0-139.31c0-4.28 1.47-5.05 5.34-5 29.34.14 58.67.08 88 .08h84.52c8.74 0 8.74 0 8.74 9v19.82c0 8.45 0 8.45 8.75 8.45 8 0 15.93.14 23.89-.06 3.37-.08 4.78.64 4.75 4.44q-.25 32.93 0 65.86c.03 3.77-1.39 4.47-4.72 4.39z"/><path d="M52.92 102.17v-9h9M543.67 93.24h9l-.04 9m-.08 16.56l-.04 9 9-.04m16.56-.07l9-.04v9m0 .46v9h-9M389.43 146.08h-9v9M380.43 278.69v9h9M509.38 287.65h9v9m0 23.27v9l-9-.02M389.4 328.68l-9-.01.04 9M380.93 484.92l.03 9h9M578.07 493.89h9v9m0 .47v9l-9-.04m-16.56-.08l-9-.04.04 9m.08 16.56l.04 9h-9M61.93 546.83h-9v-9M105.75 484.99l-.02 9h9M299.61 494.03h9l.06-9m.13-19.36l.06-9 9 .01m19.14.02l9 .01-.03-9M345.73 375.37l-.03-9-9 .04m-19.31.09l-9 .04.06-9m.13-19.81l.06-9h-9M115.08 328.65l-9-.01-.02 9M105.48 278.8l-.01 9h9M270.21 287.8h9l-.06-9m-.09-13.47l-.06-9 9 .02m13.05.02l9 .02.03-9M310.33 186.41l.03-9-9 .02m-13.46.03l-9 .02-.07-9m-.1-13.39l-.06-9h-9M114.59 146.03h-9l-.01 9" class="logo-cls"/><path stroke-dasharray="17.84 17.84" d="M79.77 93.17l454.98.07" class="logo-cls"/><path stroke-dasharray="17.15 17.15" d="M560.92 146.11l-162.91-.03" class="logo-cls"/><path stroke-dasharray="17.66 17.66" d="M380.43 172.74v97.12" class="logo-cls"/><path stroke-dasharray="17.14 17.14" d="M406.57 287.68l94.24-.02M492.24 328.87l-94.27-.17" class="logo-cls"/><path stroke-dasharray="16.36 16.36" d="M380.49 354.03l.41 122.71" class="logo-cls"/><path stroke-dasharray="17.1 17.1" d="M407.06 493.92l162.46-.03" class="logo-cls"/><path stroke-dasharray="17.84 17.84" d="M525.83 546.77l-454.98.06" class="logo-cls"/><path stroke-dasharray="17.43 17.43" d="M52.93 520.4l-.01-409.52" class="logo-cls"/><path stroke-dasharray="16.81 16.81" d="M131.54 493.99l159.67.04" class="logo-cls"/><path stroke-dasharray="14.47 14.47" d="M345.92 433.25l-.17-50.65" class="logo-cls"/><path stroke-dasharray="16.78 16.78" d="M282.86 328.73h-75.79l-83.6-.07" class="logo-cls"/><path stroke-dasharray="16.37 16.37" d="M106.02 354.01l-.25 122.79" class="logo-cls"/><path stroke-dasharray="17.31 17.31" d="M131.77 287.8h129.79" class="logo-cls"/><path stroke-dasharray="20.33 20.33" d="M310.16 227.06l.13-30.49" class="logo-cls"/><path stroke-dasharray="17.23 17.23" d="M252.44 146.08l-129.24-.04" class="logo-cls"/><path stroke-dasharray="17.68 17.68" d="M105.57 172.71l-.09 97.24" class="logo-cls"/></svg>
