<svg viewBox="0 0 154 60" xmlns="http://www.w3.org/2000/svg" fill-rule="evenodd" clip-rule="evenodd" stroke-linejoin="round" stroke-miterlimit="1.41421"><g fill="#fe7520"><path d="M134.156 58.027h-31.954l-5.021-5.223V18.555l5.021-5.223h31.954l5.02 5.223v6.132h-27.905v6.648h19.68v8.689h-19.68v6.648h27.905v6.132l-5.02 5.223zM15.711 58.027H6.638l-5.021-5.223V18.555l5.021-5.223h31.953l5.021 5.223v6.132H15.706v6.679h19.681v8.69h-19.68l.004 17.971zM85.662 58.027H53.708l-5.02-5.223V18.555l5.02-5.223h23.601l5.02 5.223v6.132h-.003v6.639l8.357 8.737v12.741l-5.021 5.223zM75.266 40.024H62.777v6.648H79.71l.001-2.023-4.445-4.625zm-3.749-15.337h-8.74v6.648h8.74v-6.648zM146.876 46.672l5.406 5.228v6.127h-11.741V46.672h6.335zM49.843 14.755h-7.645l-4.479-4.48 8.302-8.302 8.302 8.302-4.48 4.48z"/><path d="M89.311 36.143l-5.406-5.406v-6.335h11.741v11.741h-6.335z"/></g></svg>